<?xml version="1.0" encoding="UTF-8"?>
<svg id="_レイヤー_2" data-name="レイヤー 2" xmlns="http://www.w3.org/2000/svg" viewBox="0 0 78.54 19.93">
  <g id="_お客様用レイヤー" data-name="お客様用レイヤー">
    <g>
      <path d="m16.15,16.38c-.76-.95-1.68-1.78-2.75-2.54-.85,2.17-2.03,3.81-3.51,4.89l-.97-1.32c1.29-.95,2.31-2.45,3.07-4.45-1.64-.9-3.28-1.45-4.89-1.61-.39.88-.99,2.17-1.82,3.85-.23.44-.48.78-.74,1.04-.65.65-1.38.97-2.19.97-.39,0-.74-.09-1.08-.25-.85-.44-1.27-1.15-1.27-2.19,0-.67.16-1.34.48-2.03.99-2.03,2.86-3.04,5.61-3.07.95-2.01,1.75-3.81,2.47-5.35-.53.07-2.1.32-4.75.76l-.25-1.62c1.45-.25,3.65-.58,6.58-.97l.58,1.04c-.67,1.5-1.62,3.58-2.86,6.25,1.55.25,3.09.76,4.64,1.57.25-.99.39-1.94.42-2.84l1.64.05c-.05,1.2-.23,2.42-.58,3.67,1.34.9,2.49,1.94,3.46,3.12l-1.27,1.04ZM1.96,13.45c-.23.49-.35.92-.35,1.27,0,.37.14.62.39.76.09.07.23.09.42.09.55-.02,1.02-.39,1.38-1.11.16-.28.65-1.32,1.5-3.11-1.64.18-2.75.88-3.35,2.1Z"/>
      <path d="m37.08,6.32c-1.64,0-3.55.02-5.74.07l.05,2.4c-.02.28-.02.67,0,1.18l.16.53c.07.37.12.79.12,1.27,0,1.34-.25,2.77-.78,4.29-.53,1.57-1.2,2.86-2.03,3.88l-1.27-1.04c.72-.9,1.31-2.05,1.78-3.42-.37.12-.76.18-1.15.18-.72,0-1.38-.21-1.96-.6-.85-.6-1.29-1.48-1.29-2.65,0-1.25.44-2.28,1.34-3.14.97-.9,2.12-1.15,3.46-.74l-.05-2.1c-3.16.09-5.95.21-8.4.35l-.09-1.59c2.47-.16,5.28-.28,8.47-.37l-.07-3.25,1.64-.02.07,3.25c2.26-.07,4.18-.09,5.77-.09v1.61Zm-7.31,4.06c-.37-.39-.9-.48-1.62-.32-.88.21-1.38.92-1.55,2.12-.16,1.11.62,1.87,1.57,1.87.3,0,.58-.07.83-.21.51-.25.76-.74.76-1.43v-2.03Zm5.33-6.62c-.35-.6-.88-1.45-1.59-2.58l1.02-.65c.72,1.15,1.27,2.03,1.62,2.63l-1.04.6Zm2.7-.53c-.44-.81-.97-1.66-1.59-2.56l.99-.67c.62.9,1.18,1.8,1.66,2.65l-1.06.58Z"/>
      <path d="m55.03,18.64c-1.45.25-2.86.39-4.22.39-1.08,0-2.08-.07-2.93-.23-1.04-.18-1.96-.6-2.72-1.22-.81-.67-1.34-1.48-1.59-2.47-.09-.37-.14-.71-.14-1.06,0-1.36.58-2.49,1.73-3.39l1.02,1.29c-.74.58-1.11,1.27-1.11,2.1,0,.21.02.44.09.65.44,1.8,2.31,2.7,5.61,2.7,1.27,0,2.61-.12,4.01-.37l.25,1.62Zm1.18-12.37c-1.78.25-3.28.44-4.5.6.25.79.67,1.96,1.2,3.51.39,1.08.58,1.68.58,1.82,0,.53-.35.81-1.02.81-.25,0-.58-.02-.97-.07l-.97-.09.07-1.64.88.05c-.39-1.08-.88-2.49-1.43-4.2-2.31.25-4.48.39-6.53.42l-.02-1.64c1.92-.02,3.92-.16,6.04-.37l-1.2-3.81,1.57-.48,1.29,4.11c1.29-.16,2.88-.37,4.78-.65l.23,1.64Z"/>
      <path d="m76.64,15.34c-.99,1.04-2.31,1.94-3.9,2.7l-.72-1.5c1.29-.62,2.35-1.34,3.18-2.15,1.08-1.04,1.64-2.15,1.64-3.3,0-.9-.32-1.64-.97-2.19s-1.43-.83-2.35-.83c-1.48,0-3.67,1.04-6.55,3.11.05,2.93.14,5.33.28,7.24l-1.66.14c-.12-1.55-.21-3.6-.25-6.11-.85.67-2.01,1.68-3.41,3.04l-1.11-1.15,2.28-2.15c.9-.83,1.62-1.57,2.19-2.21v-2.21c-1.11.21-2.21.37-3.32.48l-.14-1.59c.9-.07,2.05-.25,3.46-.53.02-1.64.07-3.23.14-4.8l1.66.07c-.07,1.48-.09,2.98-.12,4.5,1.06-.02,1.59.44,1.59,1.36,0,.35-.09.69-.28,1.06,2.12-1.29,3.88-1.94,5.26-1.94s2.54.44,3.51,1.34c.99.9,1.48,2.01,1.48,3.37,0,1.5-.62,2.93-1.89,4.25Z"/>
    </g>
  </g>
</svg>